<?xml version="1.0" encoding="UTF-8" standalone="no"?>
<!-- Created with Inkscape (http://www.inkscape.org/) -->

<svg
   xmlns:dc="http://purl.org/dc/elements/1.1/"
   xmlns:cc="http://creativecommons.org/ns#"
   xmlns:rdf="http://www.w3.org/1999/02/22-rdf-syntax-ns#"
   xmlns:svg="http://www.w3.org/2000/svg"
   xmlns="http://www.w3.org/2000/svg"
   xmlns:sodipodi="http://sodipodi.sourceforge.net/DTD/sodipodi-0.dtd"
   xmlns:inkscape="http://www.inkscape.org/namespaces/inkscape"
   width="140"
   height="30"
   id="svg3254"
   version="1.1"
   inkscape:version="0.48.4 r9939"
   sodipodi:docname="build_platform.svg">
  <defs
     id="defs3256" />
  <sodipodi:namedview
     id="base"
     pagecolor="#ffffff"
     bordercolor="#666666"
     borderopacity="1.0"
     inkscape:pageopacity="0.0"
     inkscape:pageshadow="2"
     inkscape:zoom="2.8"
     inkscape:cx="34.698255"
     inkscape:cy="68.855572"
     inkscape:document-units="px"
     inkscape:current-layer="layer1"
     showgrid="false"
     inkscape:window-width="1280"
     inkscape:window-height="962"
     inkscape:window-x="-8"
     inkscape:window-y="168"
     inkscape:window-maximized="1" />
  <metadata
     id="metadata3259">
    <rdf:RDF>
      <cc:Work
         rdf:about="">
        <dc:format>image/svg+xml</dc:format>
        <dc:type
           rdf:resource="http://purl.org/dc/dcmitype/StillImage" />
        <dc:title></dc:title>
      </cc:Work>
    </rdf:RDF>
  </metadata>
  <g
     inkscape:label="Layer 1"
     inkscape:groupmode="layer"
     id="layer1"
     transform="translate(0,-1022.3622)">
    <path
       sodipodi:type="arc"
       style="fill:#d4ff2a;fill-opacity:1;stroke:#000000;stroke-width:0.80000001;stroke-miterlimit:4;stroke-dasharray:none"
       id="path3268"
       sodipodi:cx="67.680222"
       sodipodi:cy="4.2411098"
       sodipodi:rx="56.063465"
       sodipodi:ry="9.3439112"
       d="m 123.74369,4.2411098 a 56.063465,9.3439112 0 1 1 -112.126934,0 56.063465,9.3439112 0 1 1 112.126934,0 z"
       transform="matrix(1.1162514,0,0,1.1149359,-5.5481421,1028.6877)"
       inkscape:export-filename="C:\Users\thvoidedline\PycharmProjects\FirstPyGame\data\design files\platform.png"
       inkscape:export-xdpi="94.105209"
       inkscape:export-ydpi="94.105209" />
    <path
       style="fill:#aca793;fill-opacity:1;stroke:#000000;stroke-width:0.9477964;stroke-miterlimit:4;stroke-dasharray:none"
       d="m 6.4487269,1029.2059 c -0.029629,0.017 -0.031214,0.062 -0.031214,0.088 l 0,7.753 -6.18033005,0 c -0.0908125,0 -0.15606894,0.081 -0.15606894,0.1322 l 0,14.8431 c 0,0.052 0.06525644,0.088 0.15606894,0.088 l 139.52563715,0 c 0.0908,0 0.15607,-0.036 0.15607,-0.088 l 0,-14.8431 c 0,-0.052 -0.0652,-0.1322 -0.15607,-0.1322 l -6.18033,0 0,-7.753 c 0,-0.052 -0.24354,-0.088 -0.15607,-0.088 l -126.8528381,0 c -0.045406,0 -0.095227,-0.017 -0.124855,0 z"
       id="rect3262"
       inkscape:connector-curvature="0"
       sodipodi:nodetypes="sscsssssssscscss"
       inkscape:export-filename="C:\Users\thvoidedline\PycharmProjects\FirstPyGame\data\design files\platform.png"
       inkscape:export-xdpi="94.105209"
       inkscape:export-ydpi="94.105209" />
    <path
       style="fill:none;stroke:#000000;stroke-width:1.23181689px;stroke-linecap:butt;stroke-linejoin:miter;stroke-opacity:1"
       d="m 6.4641866,1036.8302 c 47.7563864,2.1591 78.5894624,2.9136 126.9148434,0.048"
       id="path3270"
       inkscape:connector-curvature="0"
       sodipodi:nodetypes="cc"
       inkscape:export-filename="C:\Users\thvoidedline\PycharmProjects\FirstPyGame\data\design files\platform.png"
       inkscape:export-xdpi="94.105209"
       inkscape:export-ydpi="94.105209" />
  </g>
</svg>
